# xmcd CD database file
#
# Track frame offsets:
#	150
#	1685
#	13125
#	26096
#	40673
#	42839
#	58421
#	61524
#	73725
#	85198
#	115093
#	128860
#	145745
#	147899
#	155817
#	172802
#	181751
#	184015
#
# Disc length: 2622 seconds
#
# Revision: 1
# Processed by: cddbd v1.5PL3 Copyright (c) Steve Scherf et al.
# Submitted via: CDex 1.50beta10
#
DISCID=ea0a3c12
DTITLE=Lightnin' Hopkins - In The Key Of Lightnin'
DYEAR=2002
DGENRE=Blues
TTITLE0=Lightnin' Declares
TTITLE1=Cryin' Shame
TTITLE2=Last Night I Lost The Best Friend I Ever Had
TTITLE3=Baby, Please Lend Me Your Love
TTITLE4="Short Haired Woman" Discourse
TTITLE5=Short Haired Woman
TTITLE6="Cigar" Chatter
TTITLE7=Pneumonia Blues
TTITLE8=What'd I Say
TTITLE9=Katie Mae
TTITLE10=Black Cadillac
TTITLE11=One For The Gamblin'
TTITLE12="I Gave Up Card Playin" Pronouncement
TTITLE13=I Once Was A Gambler
TTITLE14=Where Did You Stay Last Night
TTITLE15=Careless Love
TTITLE16="Black Lightnin'" Rap
TTITLE17=Lightnin' Slow Blues
EXTD=YEAR: 2002
EXTT0=
EXTT1=
EXTT2=
EXTT3=
EXTT4=
EXTT5=
EXTT6=
EXTT7=
EXTT8=
EXTT9=
EXTT10=
EXTT11=
EXTT12=
EXTT13=
EXTT14=
EXTT15=
EXTT16=
EXTT17=
PLAYORDER=
